<?xml version="1.0" encoding="utf-8"?>
<svg
      width="140"
      height="60"
      viewBox="40 250 330 70"
      fill="none"
      xmlns="http://www.w3.org/2000/svg"
    >
      <path
        d="M97.8 225.7C97.9 225.7 98 225.8 98.1 225.9C98 225.9 97.9 226 97.8 225.9C97.7 225.8 97.7 225.7 97.8 225.7Z"
        fill="#FDFEFE"
      />
      <path
        d="M61.1 298.5C61.1 292.4 62.2 284.7 64.4 275.4C64.5 274.9 64.4 274.7 64 274.7C63.7 274.8 63.3 274.9 63 275.1C60.8 276.9 58.4 280.3 55.8 285.3C53.2 290.3 51.1 294.8 49.5 298.9C47.9 303 47.1 305.4 47.1 306.1C47.1 306.7 46.7 307 46 307C44.5 307 43.8 305 43.8 301.1C43.8 293.7 44.5 287 46 281C47.5 275 49.3 272 51.4 272C52.3 272 52.8 272.5 52.8 273.6C50.5 280.8 48.9 288.2 47.9 295.8H48.6C55.1 279.4 61.2 271.3 66.7 271.3C69.1 271.3 70.3 272.5 70.3 274.8C68 281.7 66.3 288.6 65.2 295.3H65.8C67.4 291.8 69.1 288.7 70.7 285.8C72.4 283 74.3 280.3 76.5 277.8C78.7 275.3 80.7 274.1 82.5 274.1C84.9 274.1 86.1 275.2 86.1 277.5C83.5 286.1 82.2 294.4 82.2 302.6C82.2 307.9 83 310.5 84.6 310.5C85.1 310.5 85.7 310.3 86.2 309.8C86.7 309.3 87.1 309.1 87.3 309.1C88 309.1 88 309.6 87.2 310.7C87 311 86.6 311.5 85.9 312.1C85.2 312.7 84.6 313 83.9 313C82 313 80.5 311.6 79.4 308.9C78.3 306.2 77.8 302.7 77.8 298.4C77.8 290.8 78.6 284.1 80.2 278.4C80.3 278.1 80.2 277.9 79.8 277.9C79.5 277.9 79.2 278.1 78.9 278.3C76.1 280.7 72.9 285.2 69.5 291.8C66 298.4 64.3 302.2 64.3 303.4C64.3 304 63.9 304.3 63.1 304.3C61.8 304.4 61.1 302.4 61.1 298.5Z"
        fill="#293F41"
      />
      <path
        d="M94.4 330.8C98.9 330.8 102.4 328.7 104.9 324.5C107.1 320.8 108.8 316.1 110 310.6C101 310.8 94.1 314.2 89.3 320.9C89 321.3 88.5 321.4 87.9 321.1C87.6 320.9 87.5 320.7 87.6 320.4C89.7 317.2 92.7 314.4 96.5 312.2C100.3 309.9 105 308.7 110.4 308.5C110.9 306 111.5 303.1 112 299.8C112.5 296.5 113.1 293.3 113.7 290.1H113C106.6 301.6 101.6 307.3 98.3 307.3C94.5 307.3 92.6 304.4 92.6 298.6C92.6 292.8 93.8 287 96.3 281.1C98.8 275.2 101 272.1 103.1 271.6L103.5 271.5C104.3 271.5 104.8 272 104.8 273.1C104.3 274.4 103.6 276.2 102.7 278.3C101.9 280.5 100.7 284 99.4 288.9C98 293.8 97.3 297.7 97.3 300.4C97.3 303.2 97.9 304.5 99.1 304.5C100.5 304.5 102.7 302.1 105.8 297.3C110.3 290.3 114.2 283.1 117.5 275.9C118.9 272.9 120.5 271.4 122.1 271.4C123.1 271.4 123.7 272 123.7 273.1C122.8 274.8 121.6 278.1 120.3 282.8C119 287.6 117.9 292.4 117 297.2C116.2 302 115.4 305.8 114.8 308.5C118.6 309.1 120.7 310.8 121.3 313.4C121.4 313.8 121.4 314.5 121.4 315.2C121.4 315.9 121.1 316.6 120.5 317.2C119.9 317.8 119.4 318.1 118.9 318.1C119 317.8 119 317.1 119 316.3C119 315.4 118.8 314.7 118.5 314.1C118.2 313.5 117.7 312.9 117 312.2C116.3 311.6 115.3 311.1 114.1 310.8C110.3 325.2 103.7 332.4 94.2 332.4C90.1 332.4 87.4 331 86.1 328.1C86.1 328 86 327.8 86 327.7C86 327.4 86.3 327.2 86.8 327.1C87.3 327 87.7 327.2 88 327.6C89 329.8 91.1 330.8 94.4 330.8Z"
        fill="#293F41"
      />
      <path
        d="M219.1 267.6V277.8H212V297.3C212 301.5 212.1 304 212.3 304.6C212.7 305.8 213.6 306.4 214.9 306.4C215.9 306.4 217.3 306 219.1 305.2L220 315.1C217.6 316.4 214.8 317 211.8 317C209.1 317 207 316.4 205.4 315.1C203.8 313.8 202.7 312 202.2 309.6C201.8 307.8 201.6 304.3 201.6 298.9V277.9H196.8V267.7H201.6V258L212.1 250.6V267.6H219.1Z"
        fill="#293F41"
      />
      <path
        d="M252.3 315.8V308.6C250.8 311.2 248.9 313.3 246.6 314.7C244.3 316.1 241.8 316.9 239.2 316.9C236.6 316.9 234.3 316.2 232.2 314.9C230.1 313.5 228.6 311.6 227.6 309.1C226.6 306.6 226.1 302.9 226.1 298.2V267.7H236.6V289.8C236.6 296.1 236.8 300.1 237.1 301.8C237.4 303.5 238.1 304.8 239.2 305.8C240.3 306.7 241.6 307.2 243.1 307.2C244.8 307.2 246.5 306.6 247.9 305.4C249.3 304.2 250.4 302.6 250.8 300.7C251.3 298.8 251.5 294.5 251.5 288V267.7H262V315.9H252.3V315.8Z"
        fill="#293F41"
      />
      <path
        d="M273 249.3H294.9C300.9 249.3 305.1 249.8 307.5 250.9C309.9 252 312 253.9 313.6 256.7C315.3 259.5 316.1 262.6 316.1 266C316.1 269.2 315.4 272.1 314 274.7C312.6 277.3 310.7 279.2 308.4 280.4C311.6 281.6 314.2 283.5 316 286.3C317.8 289.1 318.7 292.5 318.7 296.5C318.7 301.3 317.5 305.4 315.2 308.8C312.9 312.1 310.1 314.2 306.9 315C304.7 315.5 299.6 315.8 291.5 315.8H273V249.3ZM284 260.3V275.7H291.3C295.7 275.7 298.3 275.6 299.4 275.5C301.3 275.2 302.7 274.4 303.8 273.1C304.9 271.8 305.4 270.1 305.4 267.9C305.4 265.9 305 264.3 304.1 263.1C303.2 261.9 302.2 261.1 301 260.8C299.8 260.5 296.3 260.3 290.4 260.3H284ZM284 286.8V304.5H294.2C298.7 304.5 301.6 304.3 302.8 303.8C304.1 303.3 305.1 302.4 306 301C306.9 299.6 307.3 297.9 307.3 295.8C307.3 293.6 306.8 291.8 305.9 290.4C305 289 303.7 288 302.2 287.5C300.7 287 297.5 286.7 292.8 286.7H284V286.8Z"
        fill="#5D7581"
      />
      <path
        d="M322.5 315.8V249.3H363V260.6H333.5V275.4H360.9V286.6H333.5V304.7H364V316H322.5V315.8Z"
        fill="#5D7581"
      />
      <path
        d="M136.3 285.1V249.3L161 267.2L185.7 285.1L161 303L136.3 320.9V285.1Z"
        stroke="#019194"
        strokeWidth="8.032"
        strokeMiterlimit="10"
        strokeLinecap="round"
        strokeLinejoin="round"
      />
    </svg>